<!--?xml version="1.0" standalone="no"?-->              <svg id="sw-js-blob-svg" viewBox="0 0 100 100" xmlns="http://www.w3.org/2000/svg">                    <defs>                         <linearGradient id="sw-gradient" x1="0" x2="1" y1="1" y2="0">                            <stop id="stop1" stop-color="rgba(33.066, 0, 245.02, 1)" offset="0%"></stop>                            <stop id="stop2" stop-color="rgba(226.02, 66.306, 255, 1)" offset="100%"></stop>                        </linearGradient>                    </defs>                <path fill="url(#sw-gradient)" d="M8.2,-9.7C10.4,-9.7,11.7,-7,16.5,-2.8C21.3,1.3,29.6,6.8,31.3,12.9C33.1,19,28.4,25.8,22.1,26C15.7,26.2,7.9,19.8,2.4,16.5C-3.1,13.3,-6.2,13,-13.3,13.1C-20.3,13.1,-31.3,13.4,-30.6,11C-30,8.5,-17.8,3.4,-13.6,-2.9C-9.4,-9.1,-13.3,-16.4,-12.4,-16.8C-11.5,-17.2,-5.7,-10.8,-1.4,-8.9C3,-7,6,-9.8,8.2,-9.7Z" width="100%" height="100%" transform="translate(50 50)" style="transition: all 0.3s ease 0s;" stroke-width="0"></path>              </svg>