<!--?xml version="1.0" standalone="no"?-->              <svg id="sw-js-blob-svg" viewBox="0 0 100 100" xmlns="http://www.w3.org/2000/svg">                    <defs>                         <linearGradient id="sw-gradient" x1="0" x2="1" y1="1" y2="0">                            <stop id="stop1" stop-color="rgba(81.046, 55, 248, 1)" offset="0%"></stop>                            <stop id="stop2" stop-color="rgba(217.212, 31, 251, 1)" offset="100%"></stop>                        </linearGradient>                    </defs>                <path fill="url(#sw-gradient)" d="M25.6,-29.8C31.4,-25.6,33.1,-15.9,34.7,-6.2C36.3,3.4,37.7,13,34.3,20.8C31,28.6,22.9,34.5,14.1,36.8C5.4,39.1,-3.9,37.7,-13,34.8C-22.2,31.9,-31.1,27.5,-37.1,20C-43,12.5,-45.9,2,-44.6,-8.2C-43.2,-18.3,-37.4,-28.1,-29.3,-31.8C-21.1,-35.5,-10.6,-33.3,-0.3,-32.9C9.9,-32.5,19.8,-33.9,25.6,-29.8Z" width="100%" height="100%" transform="translate(50 50)" style="transition: all 0.3s ease 0s;" stroke-width="0"></path>              </svg>