<!--?xml version="1.0" standalone="no"?-->              <svg id="sw-js-blob-svg" viewBox="0 0 100 100" xmlns="http://www.w3.org/2000/svg">                    <defs>                         <linearGradient id="sw-gradient" x1="0" x2="1" y1="1" y2="0">                            <stop id="stop1" stop-color="rgba(33.066, 0, 245.02, 1)" offset="0%"></stop>                            <stop id="stop2" stop-color="rgba(251.59, 255, 66.306, 1)" offset="100%"></stop>                        </linearGradient>                    </defs>                <path fill="none" d="M20.1,-29.3C22.7,-25.9,18.9,-15.4,18.6,-8C18.3,-0.6,21.4,3.7,20.7,7C20,10.2,15.3,12.5,11.2,17.5C7.1,22.5,3.6,30.3,-1.7,32.7C-7,35.1,-14,32,-16.2,26.4C-18.4,20.7,-15.9,12.5,-19.7,5.3C-23.5,-1.9,-33.6,-8,-34.9,-13.6C-36.2,-19.2,-28.6,-24.1,-21.3,-25.9C-14,-27.7,-7,-26.4,0.9,-27.7C8.8,-28.9,17.6,-32.6,20.1,-29.3Z" width="100%" height="100%" transform="translate(50 50)" style="transition: all 0.3s ease 0s;" stroke-width="1" stroke="url(#sw-gradient)"></path>              </svg>